# xmcd
#
# Track frame offsets:
#	150
#	19919
#	36149
#	56436
#	76152
#	91479
#	109409
#	123584
#	141689
#	157760
#	175537
#	192934
#
# Disc length: 2862 seconds
#
# Revision: 2
# Processed by: cddbd v1.4PL0 Copyright (c) Steve Scherf et al.
# Submitted via: EasyCDDAExtractor 4.6.0.1
#
DISCID=9b0b2c0c
DTITLE=QUATTRO CD 3 ULTRA LIGHTS - Labaakaas latvieshu miilas dziesmas
DYEAR=2002
DGENRE=quattro
TTITLE0=Arnis Mednis and Marina Voitjuka - The Prayer
TTITLE1=Caffe - Real Love
TTITLE2=Ainars Mielavs and Reezija Kalninja - Apturi mani
TTITLE3=Jaanis Stiibelis - Angel Of Mine
TTITLE4=Ingus Ulmanis and Aigars Voitishkjis - Par rozeem
TTITLE5=Lauris Reiniks and Marija Naumova - Tell Me
TTITLE6=Ainars Mielavs - Tu saviljnjoji mani
TTITLE7=Linda Leen and Arnis Mednis - Not To Fall Again
TTITLE8=Silvergruve - Pieskardamies
TTITLE9=Shake&Bake - Girl, I Miss You
TTITLE10=Marija Naumova - Sur Le Soleil Du Nord
TTITLE11=Time After Time - Saulriets (instr.)
EXTD=
EXTT0=
EXTT1=
EXTT2=
EXTT3=
EXTT4=
EXTT5=
EXTT6=
EXTT7=
EXTT8=
EXTT9=
EXTT10=
EXTT11=
PLAYORDER=
